<svg width="50" height="50" viewBox="0 0 50 50" fill="none" xmlns="http://www.w3.org/2000/svg">
<path d="M50 25C50 11.1929 38.8071 0 25 0C19.3709 0 14.1763 1.86045 9.99756 5L12.998 9C16.341 6.48836 20.4967 5 25 5C36.0457 5 45 13.9543 45 25C45 36.0457 36.0457 45 25 45C13.9543 45 5 36.0457 5 25H0C0 38.8071 11.1929 50 25 50C38.8071 50 50 38.8071 50 25Z" fill="#00799F"/>
<path d="M5 25H0C0 19.3709 1.86045 14.1763 5 9.99756C6.42159 8.10544 8.10544 6.42159 9.99756 5L12.998 9C11.4837 10.1378 10.1361 11.4855 8.99854 13C6.48778 16.3426 5 20.4976 5 25Z" fill="#BFDEE8"/>
<path d="M5 9.99756L8.99854 13C11.2741 9.9705 14.3899 7.60823 18 6.25921L16 1.66898C11.5945 3.36954 7.7916 6.28196 5 9.99756Z" fill="url(#paint0_linear_6_11)"/>
<defs>
<linearGradient id="paint0_linear_6_11" x1="15.5" y1="4.5" x2="7.5" y2="10.5" gradientUnits="userSpaceOnUse">
<stop stop-color="#00799F"/>
<stop offset="1" stop-color="#BFDEE8"/>
</linearGradient>
</defs>
</svg>
