<svg width="633" height="625" viewBox="0 0 633 625" fill="none" xmlns="http://www.w3.org/2000/svg">
<path d="M246.639 53.7399L246.708 53.8222L246.775 53.9066C252.46 61.0606 260.053 73.5943 265.006 88.6174C269.959 103.641 272.48 121.806 267.092 139.772C258.385 168.805 270.234 188.944 276.103 194.739L346.022 260.184L346.054 260.214L598.602 493.867C608.226 500.186 625.5 518.206 625.5 545.347C625.5 561.709 621.996 575.205 614.152 586.467C606.368 597.641 594.831 605.864 580.149 612.683C566.917 618.828 552.972 618.288 541.395 615.513C529.835 612.742 519.944 607.589 514.152 603.505L513.597 603.114L513.122 602.629C473.18 561.929 420.065 507.493 368.608 454.758C351.112 436.826 333.807 419.092 317.278 402.16C284.702 368.793 255.137 338.547 233.035 316.055C210.727 293.354 196.416 278.962 193.993 276.87C182.226 266.716 172.68 263.559 165.906 262.898C159.344 262.258 154.655 263.884 152.131 264.951C146.174 268.084 136.598 269.966 126.375 270.308C115.688 270.666 103.192 269.383 91.3948 265.266C45.7184 249.328 27.4636 218.066 18.2242 200.668C8.86853 183.052 5.23663 162.909 8.91553 136.097L9.19189 134.083L10.4478 132.484L15.9492 125.48L20.4501 119.75L26.3079 124.083C34.2308 129.945 47.0023 139.073 59.5013 147.363C72.2885 155.844 83.9341 162.861 89.9762 165.106C101.9 169.536 110.151 168.026 112.156 167.343C114.992 165.747 119.288 163.15 123.338 160.329C127.885 157.162 131.115 154.392 132.274 152.77C132.926 151.857 133.614 150.927 134.333 149.957C139.212 143.371 145.489 134.898 151.235 116.833C153.323 110.268 152.253 103.334 149.56 96.8807C147.019 90.7908 143.272 85.7402 140.575 82.8995L78.2361 41.8222L71.6525 37.484L76.3141 31.1252L81.8155 23.621L82.8483 22.2122L84.3973 21.4047C97.3019 14.6777 131.407 3.22896 168.563 9.14206C206.179 15.1283 236.132 41.2697 246.639 53.7399Z" fill="#5EABC3" stroke="black" stroke-width="15"/>
</svg>
